<svg xmlns="http://www.w3.org/2000/svg" viewBox="0 0 80 80" width="80" height="80" role="img" aria-label="control tile, stars">
  <defs>
    <linearGradient id="pbg" x1="0" y1="0" x2="0" y2="1">
      <stop offset="0" stop-color="#2d1f45"/>
      <stop offset="1" stop-color="#1a1230"/>
    </linearGradient>
  </defs>
  <rect x="2" y="2" width="76" height="76" rx="20" fill="url(#pbg)" stroke="#a78bfa" stroke-width="1.5"/>
  <g fill="#c084fc" transform="translate(20, 22)">
    <path d="M20 0l2.5 4.1L27 3.6l-1.3 4.6 4.7 1-3.2 3.2 2.1 3.1L20 12.2l-4.2 2.2 1.1-3.1-2.1-2.1-3.1 1.1 1.1-2.1L10 6.6l4.1 1-1.1-2.1z" transform="scale(0.85)"/>
    <path d="M4 6l1.1 1.8 2.1-.4-.6 2 2.1.4-1.3 1.2L8 12l-1-1-1.4.8.4-1.6-1.4-.9 1.6-.3z" transform="translate(0, 4)"/>
    <path d="M32 8l.9 1.5L35 8.7l-.5 1.6 1.6.2-1.1.9.7 1.1-1.2-.2-.8.9-.1-1.1-1.1-.4 1.1-1.1z"/>
  </g>
</svg>
